<?xml version="1.0" encoding="UTF-8" standalone="no" ?>
<!DOCTYPE svg PUBLIC "-//W3C//DTD SVG 1.1//EN" "http://www.w3.org/Graphics/SVG/1.1/DTD/svg11.dtd">
<svg xmlns="http://www.w3.org/2000/svg" xmlns:xlink="http://www.w3.org/1999/xlink" version="1.1" width="300" height="300" viewBox="0 0 300 300" xml:space="preserve">
<desc>Created with Fabric.js 4.6.0</desc>
<defs>
</defs>
<g transform="matrix(1.29 0 0 1.29 150 150)" id="ovjVQXzSA1Vsts_gyXxih"  >
<path style="stroke: rgb(38,38,38); stroke-width: 10; stroke-dasharray: none; stroke-linecap: butt; stroke-dashoffset: 0; stroke-linejoin: miter; stroke-miterlimit: 4; fill: none; fill-rule: nonzero; opacity: 1;" vector-effect="non-scaling-stroke"  transform=" translate(-112.5, -112.5)" d="M 0 225 L 0 0 L 225 0 L 225 225 z" stroke-linecap="round" />
</g>
<g transform="matrix(1.29 0 0 1.29 150.01 186.66)" id="qYaU8FZcI8jlQF0UqgkBm"  >
<path style="stroke: rgb(38,38,38); stroke-width: 10; stroke-dasharray: none; stroke-linecap: round; stroke-dashoffset: 0; stroke-linejoin: round; stroke-miterlimit: 4; fill: none; fill-rule: nonzero; opacity: 1;" vector-effect="non-scaling-stroke"  transform=" translate(-217.55, -367.35)" d="M 265.22 323.7 L 265.22 371.7 C 265.22 382.12300805069407 261.0794761736391 392.1191168276236 253.70929650063132 399.4892965006313 C 246.33911682762357 406.8594761736391 236.34300805069407 411 225.91999999999996 411 L 209.17 411 C 187.46520933164982 411 169.87 393.4047906683502 169.87 371.7 L 169.87 324.31" stroke-linecap="round" />
</g>
<g transform="matrix(1.29 0 0 1.29 103.77 93.97)" id="jexqEFaEoxQWY5FRtWRNN"  >
<path style="stroke: rgb(38,38,38); stroke-width: 10; stroke-dasharray: none; stroke-linecap: round; stroke-dashoffset: 0; stroke-linejoin: round; stroke-miterlimit: 4; fill: none; fill-rule: nonzero; opacity: 1;" vector-effect="non-scaling-stroke"  transform=" translate(-181.79, -295.67)" d="M 169.87 324.34 L 169.87 278.92 C 169.87 272.336765782017 175.20676578201693 267 181.79 267 L 181.79 267 C 188.36932863634738 267.00551957294556 193.7000023152575 272.3406690483955 193.7 278.92 L 193.7 324.34000000000003" stroke-linecap="round" />
</g>
<g transform="matrix(1.29 0 0 1.29 196.24 93.97)" id="-pw5mOjTFCDCVlKWTOCdT"  >
<path style="stroke: rgb(38,38,38); stroke-width: 10; stroke-dasharray: none; stroke-linecap: round; stroke-dashoffset: 0; stroke-linejoin: round; stroke-miterlimit: 4; fill: none; fill-rule: nonzero; opacity: 1;" vector-effect="non-scaling-stroke"  transform=" translate(-253.3, -295.67)" d="M 241.38 324.34 L 241.38 278.92 C 241.38 275.75861944111267 242.63585353715578 272.72672079935694 244.87128716825634 270.49128716825635 C 247.10672079935694 268.25585353715576 250.13861944111264 267 253.3 267 L 253.3 267 C 256.46138055888736 267 259.4932792006431 268.25585353715576 261.7287128317437 270.49128716825635 C 263.96414646284427 272.72672079935694 265.22 275.75861944111267 265.22 278.92 L 265.22 324.34000000000003" stroke-linecap="round" />
</g>
<g transform="matrix(1.29 0 0 1.29 134.59 124.8)" id="ZvZLxllxj-fVILdxCuWVs"  >
<path style="stroke: rgb(38,38,38); stroke-width: 10; stroke-dasharray: none; stroke-linecap: round; stroke-dashoffset: 0; stroke-linejoin: round; stroke-miterlimit: 4; fill: none; fill-rule: nonzero; opacity: 1;" vector-effect="non-scaling-stroke"  transform=" translate(-205.62, -319.51)" d="M 193.7 336.58 L 193.7 314.36 C 193.7 307.776765782017 199.03676578201691 302.44 205.61999999999998 302.44 L 205.61999999999998 302.44 C 208.78219410008944 302.43734380867375 211.8156362851795 303.6923443539516 214.05164596561391 305.9283540343861 C 216.28765564604834 308.1643637148205 217.54265619132624 311.1978058999106 217.53999999999996 314.36 L 217.53999999999996 320.48" stroke-linecap="round" />
</g>
<g transform="matrix(1.29 0 0 1.29 165.41 136.89)" id="N7gT3iXjA0cYgTgKC_th1"  >
<path style="stroke: rgb(38,38,38); stroke-width: 10; stroke-dasharray: none; stroke-linecap: round; stroke-dashoffset: 0; stroke-linejoin: round; stroke-miterlimit: 4; fill: none; fill-rule: nonzero; opacity: 1;" vector-effect="non-scaling-stroke"  transform=" translate(-229.46, -328.86)" d="M 217.54 338.28 L 217.54 314.36 C 217.54 307.776765782017 222.87676578201692 302.44 229.45999999999998 302.44 L 229.45999999999998 302.44 C 232.62219410008944 302.43734380867375 235.6556362851795 303.6923443539516 237.89164596561392 305.9283540343861 C 240.12765564604834 308.1643637148205 241.38265619132625 311.1978058999106 241.37999999999997 314.36 L 241.37999999999997 343.36 C 241.37999999999997 346.52138055888736 240.1241464628442 349.5532792006431 237.88871283174362 351.7887128317437 C 235.65327920064306 354.0241464628442 232.62138055888735 355.28000000000003 229.45999999999998 355.28000000000003 L 229.45999999999998 355.28000000000003 C 227.08959177536883 355.2968287426459 224.7689741921481 354.59994658552256 222.79999999999998 353.28000000000003" stroke-linecap="round" />
</g>
<g transform="matrix(1.29 0 0 1.29 122.94 162.28)" id="I5rv61L0pzkKftXCm8vuO"  >
<path style="stroke: rgb(38,38,38); stroke-width: 10; stroke-dasharray: none; stroke-linecap: round; stroke-dashoffset: 0; stroke-linejoin: round; stroke-miterlimit: 4; fill: none; fill-rule: nonzero; opacity: 1;" vector-effect="non-scaling-stroke"  transform=" translate(-196.61, -348.5)" d="M 169.87 350.58 C 169.87 342.8480135023689 176.1380135023689 336.58 183.87 336.58 L 211.42000000000002 336.58 C 214.5813805588874 336.58 217.6132792006431 337.83585353715574 219.84871283174365 340.07128716825633 C 222.08414646284422 342.3067207993569 223.34 345.33861944111266 223.34 348.5 L 223.34 348.5 C 223.34265619132628 351.66219410008944 222.08765564604838 354.6956362851795 219.85164596561395 356.93164596561394 C 217.61563628517953 359.1676556460484 214.58219410008948 360.42265619132627 211.42000000000002 360.42 L 192.87 360.42" stroke-linecap="round" />
</g>
<g transform="matrix(1.29 0 0 1.29 144.18 191.44)" id="mz0vzI_sgFx6tuc3lh7IF"  >
<path style="stroke: rgb(38,38,38); stroke-width: 10; stroke-dasharray: none; stroke-linecap: round; stroke-dashoffset: 0; stroke-linejoin: round; stroke-miterlimit: 4; fill: none; fill-rule: nonzero; opacity: 1;" vector-effect="non-scaling-stroke"  transform=" translate(-213.04, -371.05)" d="M 206.59 360.42 C 210.00864055403173 360.42 213.28726249129943 361.77804967231026 215.7046064094946 364.1953935905054 C 218.12195032768977 366.61273750870055 219.48000000000002 369.89135944596825 219.48000000000002 373.31 L 219.48000000000002 381.68" stroke-linecap="round" />
</g>
</svg>