<?xml version="1.0" encoding="UTF-8" standalone="no" ?>
<!DOCTYPE svg PUBLIC "-//W3C//DTD SVG 1.1//EN" "http://www.w3.org/Graphics/SVG/1.1/DTD/svg11.dtd">
<svg xmlns="http://www.w3.org/2000/svg" xmlns:xlink="http://www.w3.org/1999/xlink" version="1.1" width="300" height="300" viewBox="0 0 300 300" xml:space="preserve">
<desc>Created with Fabric.js 4.6.0</desc>
<defs>
</defs>
<g transform="matrix(1.29 0 0 1.29 150 150)" id="P6fjl8QAdaTd1tkJ04yua"  >
<path style="stroke: rgb(38,38,38); stroke-width: 10; stroke-dasharray: none; stroke-linecap: butt; stroke-dashoffset: 0; stroke-linejoin: miter; stroke-miterlimit: 4; fill: none; fill-rule: nonzero; opacity: 1;" vector-effect="non-scaling-stroke"  transform=" translate(-112.5, -112.5)" d="M 0 225 L 0 0 L 225 0 L 225 225 z" stroke-linecap="round" />
</g>
<g transform="matrix(1.29 0 0 1.29 159.63 192.32)" id="aaWm4J9DwmoO4Kx4_ePPj"  >
<line style="stroke: rgb(38,38,38); stroke-width: 7; stroke-dasharray: none; stroke-linecap: round; stroke-dashoffset: 0; stroke-linejoin: round; stroke-miterlimit: 4; fill: none; fill-rule: nonzero; opacity: 1;" vector-effect="non-scaling-stroke"  x1="-5.634999999999991" y1="-6.5449999999999875" x2="5.634999999999991" y2="6.5449999999999875" />
</g>
<g transform="matrix(1.29 0 0 1.29 116.15 107.68)" id="kBUBy-QZIuk1JU-B2h_mt"  >
<path style="stroke: rgb(38,38,38); stroke-width: 7; stroke-dasharray: none; stroke-linecap: round; stroke-dashoffset: 0; stroke-linejoin: round; stroke-miterlimit: 4; fill: none; fill-rule: nonzero; opacity: 1;" vector-effect="non-scaling-stroke"  transform=" translate(-756.28, -306.27)" d="M 782.46 327.54 L 735.08 267 C 726.82 282.17 728.99 301.59000000000003 740.33 314.1 L 767.39 345.55" stroke-linecap="round" />
</g>
<g transform="matrix(1.29 0 0 1.29 179.62 173.03)" id="8VV5lCZPQBU6zNed_eRqe"  >
<line style="stroke: rgb(38,38,38); stroke-width: 7; stroke-dasharray: none; stroke-linecap: round; stroke-dashoffset: 0; stroke-linejoin: round; stroke-miterlimit: 4; fill: none; fill-rule: nonzero; opacity: 1;" vector-effect="non-scaling-stroke"  x1="6.544999999999959" y1="8.365000000000009" x2="-6.544999999999959" y2="-8.365000000000009" />
</g>
<g transform="matrix(1.29 0 0 1.29 166.93 130.95)" id="RyIZGTqt8RYrsEBjUvWXY"  >
<path style="stroke: rgb(38,38,38); stroke-width: 7; stroke-dasharray: none; stroke-linecap: round; stroke-dashoffset: 0; stroke-linejoin: round; stroke-miterlimit: 4; fill: none; fill-rule: nonzero; opacity: 1;" vector-effect="non-scaling-stroke"  transform=" translate(-795.55, -324.27)" d="M 754.64 365.18 L 831.47 267 C 839.73 282.17 837.5600000000001 301.59000000000003 826.22 314.1 L 769.37 381.55" stroke-linecap="round" />
</g>
<g transform="matrix(1.29 0 0 1.29 152.12 158.47)" id="tvVPMo-wvpmn6wiCml1WA"  >
<path style="stroke: rgb(38,38,38); stroke-width: 7; stroke-dasharray: none; stroke-linecap: round; stroke-dashoffset: 0; stroke-linejoin: round; stroke-miterlimit: 4; fill: none; fill-rule: nonzero; opacity: 1;" vector-effect="non-scaling-stroke"  transform=" translate(-784.1, -345.55)" d="M 784.09 343.91 C 784.7542130851162 343.90594984503394 785.3552788501554 344.30294487950397 785.6122735064432 344.91543910219866 C 785.8692681627311 345.5279333248934 785.7314358212192 346.23496045091423 785.263196027707 346.7060728811965 C 784.7949562341946 347.1771853114788 784.0887853356647 347.3193393594878 783.4747307508942 347.0660956169842 C 782.8606761661237 346.81285187448066 782.4600123481479 346.21422543314935 782.46 345.55 C 782.4573371712073 345.11596708758077 782.6278925679064 344.69879656623795 782.93386595558 344.39094604121664 C 783.2398393432536 344.0830955161954 783.655958919394 343.9099918317365 784.09 343.91" stroke-linecap="round" />
</g>
<g transform="matrix(1.29 0 0 1.29 103.45 213.48)" id="Uo3GxaIp6Dv3fEzEP17GF"  >
<path style="stroke: rgb(38,38,38); stroke-width: 7; stroke-dasharray: none; stroke-linecap: butt; stroke-dashoffset: 0; stroke-linejoin: miter; stroke-miterlimit: 4; fill: none; fill-rule: nonzero; opacity: 1;" vector-effect="non-scaling-stroke"  transform=" translate(-22.91, -22.91)" d="M 0 22.91 C 0 10.25716 10.25716 0 22.91 0 C 35.56284 0 45.82 10.25716 45.82 22.91 C 45.82 35.56284 35.56284 45.82 22.91 45.82 C 10.25716 45.82 0 35.56284 0 22.91 z" stroke-linecap="round" />
</g>
<g transform="matrix(1.29 0 0 1.29 103.45 213.48)" id="Zn1xjv5LmjDBH0ysdQ7zH"  >
<path style="stroke: rgb(38,38,38); stroke-width: 7; stroke-dasharray: none; stroke-linecap: butt; stroke-dashoffset: 0; stroke-linejoin: miter; stroke-miterlimit: 4; fill: none; fill-rule: nonzero; opacity: 1;" vector-effect="non-scaling-stroke"  transform=" translate(-9.82, -9.82)" d="M 0 9.82 C 0 4.39656 4.39656 0 9.82 0 C 15.24344 0 19.64 4.39656 19.64 9.82 C 19.64 15.24344 15.24344 19.64 9.82 19.64 C 4.39656 19.64 0 15.24344 0 9.82 z" stroke-linecap="round" />
</g>
<g transform="matrix(1.29 0 0 1.29 196.55 213.48)" id="MXCwBB0kmr28bNtdqz3Si"  >
<path style="stroke: rgb(38,38,38); stroke-width: 7; stroke-dasharray: none; stroke-linecap: butt; stroke-dashoffset: 0; stroke-linejoin: miter; stroke-miterlimit: 4; fill: none; fill-rule: nonzero; opacity: 1;" vector-effect="non-scaling-stroke"  transform=" translate(-22.91, -22.91)" d="M 0 22.91 C 0 10.25716 10.25716 0 22.91 0 C 35.56284 0 45.82 10.25716 45.82 22.91 C 45.82 35.56284 35.56284 45.82 22.91 45.82 C 10.25716 45.82 0 35.56284 0 22.91 z" stroke-linecap="round" />
</g>
<g transform="matrix(1.29 0 0 1.29 196.55 213.48)" id="BzcqcNyDoyvbh_l41f7nX"  >
<path style="stroke: rgb(38,38,38); stroke-width: 7; stroke-dasharray: none; stroke-linecap: butt; stroke-dashoffset: 0; stroke-linejoin: miter; stroke-miterlimit: 4; fill: none; fill-rule: nonzero; opacity: 1;" vector-effect="non-scaling-stroke"  transform=" translate(-9.82, -9.82)" d="M 0 9.82 C 0 4.39656 4.39656 0 9.82 0 C 15.24344 0 19.64 4.39656 19.64 9.82 C 19.64 15.24344 15.24344 19.64 9.82 19.64 C 4.39656 19.64 0 15.24344 0 9.82 z" stroke-linecap="round" />
</g>
</svg>